HIERARCHY
ROOT hip
{
  OFFSET 0 90.174 2.4664
  CHANNELS 6 Xposition Yposition Zposition Zrotation Xrotation Yrotation
  JOINT abdomen
  {
    OFFSET 0 -1.186 -1.5018
    CHANNELS 6 Xposition Yposition Zposition Zrotation Xrotation Yrotation
    JOINT abdomen2
    {
      OFFSET 0 9.964 0.2134
      CHANNELS 6 Xposition Yposition Zposition Zrotation Xrotation Yrotation
      JOINT chest
      {
        OFFSET 0 13.134 -3.2573
        CHANNELS 6 Xposition Yposition Zposition Zrotation Xrotation Yrotation
        JOINT neck
        {
          OFFSET 0 20.686 -1.6905
          CHANNELS 6 Xposition Yposition Zposition Zrotation Xrotation Yrotation
          JOINT head
          {
            OFFSET 0 7.238 -0.1237
            CHANNELS 6 Xposition Yposition Zposition Zrotation Xrotation Yrotation
            End Site
            {
              OFFSET 0 0 0
            }
          }
        }
        JOINT lCollar
        {
          OFFSET 1.7069 20.075 5.0056
          CHANNELS 6 Xposition Yposition Zposition Zrotation Xrotation Yrotation
          JOINT lShldr
          {
            OFFSET 13.6458 -0.047 -4.849
            CHANNELS 6 Xposition Yposition Zposition Zrotation Xrotation Yrotation
            JOINT lForeArm
            {
              OFFSET 28.3255 -0.9759 2.2888
              CHANNELS 6 Xposition Yposition Zposition Zrotation Xrotation Yrotation
              JOINT lHand
              {
                OFFSET 22.1583 -0.53 10.8316
                CHANNELS 6 Xposition Yposition Zposition Zrotation Xrotation Yrotation
                JOINT lThumb1
                {
                  OFFSET 0.786 0.112 2.5817
                  CHANNELS 6 Xposition Yposition Zposition Zrotation Xrotation Yrotation
                  JOINT lThumb2
                  {
                    OFFSET 0.3601 -0.878 4.2331
                    CHANNELS 6 Xposition Yposition Zposition Zrotation Xrotation Yrotation
                    JOINT lThumb2_End
                    {
                      OFFSET 1.8127 -1.216 2.2227
                      CHANNELS 6 Xposition Yposition Zposition Zrotation Xrotation Yrotation
                      End Site
                      {
                        OFFSET 0.0181 -0.0122 0.0222
                      }
                    }
                  }
                }
                JOINT lCarpal1
                {
                  OFFSET 0.9571 1.114 1.7695
                  CHANNELS 6 Xposition Yposition Zposition Zrotation Xrotation Yrotation
                  JOINT lIndex1
                  {
                    OFFSET 4.1246 0.487 4.1451
                    CHANNELS 6 Xposition Yposition Zposition Zrotation Xrotation Yrotation
                    JOINT lIndex2
                    {
                      OFFSET 3.4052 -1.454 2.7682
                      CHANNELS 6 Xposition Yposition Zposition Zrotation Xrotation Yrotation
                      JOINT lIndex2_End
                      {
                        OFFSET 1.4531 -1.795 1.2713
                        CHANNELS 6 Xposition Yposition Zposition Zrotation Xrotation Yrotation
                        End Site
                        {
                          OFFSET 0.0145 -0.0179 0.0127
                        }
                      }
                    }
                  }
                  JOINT lMid1
                  {
                    OFFSET 5.6954 0.21 2.1184
                    CHANNELS 6 Xposition Yposition Zposition Zrotation Xrotation Yrotation
                    JOINT lMid2
                    {
                      OFFSET 3.9766 -1.54 2.3863
                      CHANNELS 6 Xposition Yposition Zposition Zrotation Xrotation Yrotation
                      JOINT lMid2_End
                      {
                        OFFSET 1.4042 -1.926 1.125
                        CHANNELS 6 Xposition Yposition Zposition Zrotation Xrotation Yrotation
                        End Site
                        {
                          OFFSET 0.014 -0.0193 0.0113
                        }
                      }
                    }
                  }
                }
                JOINT lCarpal2
                {
                  OFFSET 2.0956 0.66 -0.3894
                  CHANNELS 6 Xposition Yposition Zposition Zrotation Xrotation Yrotation
                  JOINT lRing1
                  {
                    OFFSET 5.0395 -0.09 2.4971
                    CHANNELS 6 Xposition Yposition Zposition Zrotation Xrotation Yrotation
                    JOINT lRing2
                    {
                      OFFSET 3.7921 -1.552 1.4806
                      CHANNELS 6 Xposition Yposition Zposition Zrotation Xrotation Yrotation
                      JOINT lRing2_End
                      {
                        OFFSET 1.4655 -1.808 0.9609
                        CHANNELS 6 Xposition Yposition Zposition Zrotation Xrotation Yrotation
                        End Site
                        {
                          OFFSET 0.0147 -0.0181 0.0096
                        }
                      }
                    }
                  }
                  JOINT lPinky1
                  {
                    OFFSET 4.9141 -1.269 0.3591
                    CHANNELS 6 Xposition Yposition Zposition Zrotation Xrotation Yrotation
                    JOINT lPinky2
                    {
                      OFFSET 3.1477 -1.685 0.8462
                      CHANNELS 6 Xposition Yposition Zposition Zrotation Xrotation Yrotation
                      JOINT lPinky2_End
                      {
                        OFFSET 0.8055 -1.585 0.7955
                        CHANNELS 6 Xposition Yposition Zposition Zrotation Xrotation Yrotation
                        End Site
                        {
                          OFFSET 0.0081 -0.0158 0.008
                        }
                      }
                    }
                  }
                }
              }
            }
          }
        }
        JOINT rCollar
        {
          OFFSET -1.7069 20.075 5.0056
          CHANNELS 6 Xposition Yposition Zposition Zrotation Xrotation Yrotation
          JOINT rShldr
          {
            OFFSET -13.6458 -0.047 -4.849
            CHANNELS 6 Xposition Yposition Zposition Zrotation Xrotation Yrotation
            JOINT rForeArm
            {
              OFFSET -28.3255 -0.9759 2.2888
              CHANNELS 6 Xposition Yposition Zposition Zrotation Xrotation Yrotation
              JOINT rHand
              {
                OFFSET -22.1583 -0.53 10.8316
                CHANNELS 6 Xposition Yposition Zposition Zrotation Xrotation Yrotation
                JOINT rThumb1
                {
                  OFFSET -0.786 0.112 2.5817
                  CHANNELS 6 Xposition Yposition Zposition Zrotation Xrotation Yrotation
                  JOINT rThumb2
                  {
                    OFFSET -0.3601 -0.878 4.2331
                    CHANNELS 6 Xposition Yposition Zposition Zrotation Xrotation Yrotation
                    JOINT rThumb2_End
                    {
                      OFFSET -1.8127 -1.216 2.2227
                      CHANNELS 6 Xposition Yposition Zposition Zrotation Xrotation Yrotation
                      End Site
                      {
                        OFFSET -0.0181 -0.0122 0.0222
                      }
                    }
                  }
                }
                JOINT rCarpal1
                {
                  OFFSET -0.9571 1.114 1.7695
                  CHANNELS 6 Xposition Yposition Zposition Zrotation Xrotation Yrotation
                  JOINT rIndex1
                  {
                    OFFSET -4.1246 0.487 4.1451
                    CHANNELS 6 Xposition Yposition Zposition Zrotation Xrotation Yrotation
                    JOINT rIndex2
                    {
                      OFFSET -3.4052 -1.454 2.7682
                      CHANNELS 6 Xposition Yposition Zposition Zrotation Xrotation Yrotation
                      JOINT rIndex2_End
                      {
                        OFFSET -1.4531 -1.795 1.2713
                        CHANNELS 6 Xposition Yposition Zposition Zrotation Xrotation Yrotation
                        End Site
                        {
                          OFFSET -0.0145 -0.018 0.0127
                        }
                      }
                    }
                  }
                  JOINT rMid1
                  {
                    OFFSET -5.6954 0.21 2.1184
                    CHANNELS 6 Xposition Yposition Zposition Zrotation Xrotation Yrotation
                    JOINT rMid2
                    {
                      OFFSET -3.9766 -1.54 2.3863
                      CHANNELS 6 Xposition Yposition Zposition Zrotation Xrotation Yrotation
                      JOINT rMid2_End
                      {
                        OFFSET -1.4042 -1.926 1.125
                        CHANNELS 6 Xposition Yposition Zposition Zrotation Xrotation Yrotation
                        End Site
                        {
                          OFFSET -0.014 -0.0193 0.0113
                        }
                      }
                    }
                  }
                }
                JOINT rCarpal2
                {
                  OFFSET -2.0956 0.66 -0.3894
                  CHANNELS 6 Xposition Yposition Zposition Zrotation Xrotation Yrotation
                  JOINT rRing1
                  {
                    OFFSET -5.0395 -0.09 2.4971
                    CHANNELS 6 Xposition Yposition Zposition Zrotation Xrotation Yrotation
                    JOINT rRing2
                    {
                      OFFSET -3.7921 -1.552 1.4806
                      CHANNELS 6 Xposition Yposition Zposition Zrotation Xrotation Yrotation
                      JOINT rRing2_End
                      {
                        OFFSET -1.4655 -1.808 0.9609
                        CHANNELS 6 Xposition Yposition Zposition Zrotation Xrotation Yrotation
                        End Site
                        {
                          OFFSET -0.0147 -0.0181 0.0096
                        }
                      }
                    }
                  }
                  JOINT rPinky1
                  {
                    OFFSET -4.9141 -1.269 0.3592
                    CHANNELS 6 Xposition Yposition Zposition Zrotation Xrotation Yrotation
                    JOINT rPinky2
                    {
                      OFFSET -3.1477 -1.685 0.8462
                      CHANNELS 6 Xposition Yposition Zposition Zrotation Xrotation Yrotation
                      JOINT rPinky2_End
                      {
                        OFFSET -0.8055 -1.585 0.7955
                        CHANNELS 6 Xposition Yposition Zposition Zrotation Xrotation Yrotation
                        End Site
                        {
                          OFFSET -0.0081 -0.0158 0.008
                        }
                      }
                    }
                  }
                }
              }
            }
          }
        }
      }
    }
  }
  JOINT lThigh
  {
    OFFSET 8.367 -8.2066 0.5982
    CHANNELS 6 Xposition Yposition Zposition Zrotation Xrotation Yrotation
    JOINT lShin
    {
      OFFSET 2.1923 -43.463 -0.4932
      CHANNELS 6 Xposition Yposition Zposition Zrotation Xrotation Yrotation
      JOINT lFoot
      {
        OFFSET 0.7333 -45.8593 -2.6451
        CHANNELS 6 Xposition Yposition Zposition Zrotation Xrotation Yrotation
        End Site
        {
          OFFSET 2.6618 -4.2699 12.3931
        }
      }
    }
  }
  JOINT rThigh
  {
    OFFSET -8.367 -8.2066 0.5982
    CHANNELS 6 Xposition Yposition Zposition Zrotation Xrotation Yrotation
    JOINT rShin
    {
      OFFSET -2.1923 -43.463 -0.4931
      CHANNELS 6 Xposition Yposition Zposition Zrotation Xrotation Yrotation
      JOINT rFoot
      {
        OFFSET -0.7333 -45.8593 -2.6451
        CHANNELS 6 Xposition Yposition Zposition Zrotation Xrotation Yrotation
        End Site
        {
          OFFSET -2.6618 -4.2699 12.3931
        }
      }
    }
  }
}
MOTION
Frames:	4
Frame Time:	0.0333333
0 90.174 2.4664 0 0 -0 0 -1.186 -1.5018 0 0 -0 0 9.964 0.2134 0 0 -0 0 13.134 -3.2573 0 0 -0 0 20.686 -1.6905 0 0 -0 0 7.238 -0.1237 0 0 -0 1.7069 20.075 5.0056 0 0 -0 13.6458 -0.047 -4.849 1.66051 0.0835086 5.75766 28.3255 -0.9759 2.2888 -0.0175111 0.895433 15.7816 22.1583 -0.53 10.8316 7.95139e-016 -1.98785e-016 -0 0.786 0.112 2.5817 5.46658e-016 -3.97569e-016 -0 0.3601 -0.878 4.2331 5.96354e-016 0 -0 1.8127 -1.216 2.2227 3.97569e-016 1.98785e-016 9.54166e-015 0.9571 1.114 1.7695 1.49089e-016 -3.97569e-016 -0 4.1246 0.487 4.1451 6.4605e-016 0 3.18055e-015 3.4052 -1.454 2.7682 5.96354e-016 0 3.18055e-015 1.4531 -1.795 1.2713 8.94531e-016 -1.98785e-016 6.36111e-015 5.6954 0.21 2.1184 6.4605e-016 0 3.18055e-015 3.9766 -1.54 2.3863 5.96354e-016 0 3.18055e-015 1.4042 -1.926 1.125 8.94531e-016 -1.98785e-016 6.36111e-015 2.0956 0.66 -0.3894 1.49089e-016 -3.97569e-016 -0 5.0395 -0.09 2.4971 6.4605e-016 0 3.18055e-015 3.7921 -1.552 1.4806 5.96354e-016 0 3.18055e-015 1.4655 -1.808 0.9609 8.94531e-016 -1.98785e-016 6.36111e-015 4.9141 -1.269 0.3591 6.4605e-016 0 3.18055e-015 3.1477 -1.685 0.8462 5.96354e-016 0 3.18055e-015 0.8055 -1.585 0.7955 8.94531e-016 -1.98785e-016 6.36111e-015 -1.7069 20.075 5.0056 0 0 -0 -13.6458 -0.047 -4.849 -1.4496 0.0636048 -5.0245 -28.3255 -0.9759 2.2888 -1.74811 1.20616 -16.8394 -22.1583 -0.53 10.8316 -1.19271e-015 1.98785e-016 -3.18055e-015 -0.786 0.112 2.5817 -3.97569e-016 1.98785e-016 -3.18055e-015 -0.3601 -0.878 4.2331 -2.98177e-016 1.98785e-016 -3.18055e-015 -1.8127 -1.216 2.2227 -2.98177e-016 3.97569e-016 -0 -0.9571 1.114 1.7695 4.96962e-016 0 -6.36111e-015 -4.1246 0.487 4.1451 -9.93923e-017 3.97569e-016 -0 -3.4052 -1.454 2.7682 -8.94531e-016 5.96354e-016 -0 -1.4531 -1.795 1.2713 -3.97569e-016 3.97569e-016 -0 -5.6954 0.21 2.1184 -9.93923e-017 3.97569e-016 -0 -3.9766 -1.54 2.3863 -8.94531e-016 5.96354e-016 -0 -1.4042 -1.926 1.125 -3.97569e-016 3.97569e-016 -0 -2.0956 0.66 -0.3894 4.96962e-016 0 -6.36111e-015 -5.0395 -0.09 2.4971 -9.93923e-017 3.97569e-016 -0 -3.7921 -1.552 1.4806 -8.94531e-016 5.96354e-016 -0 -1.4655 -1.808 0.9609 -3.97569e-016 3.97569e-016 -0 -4.9141 -1.269 0.3592 -9.93923e-017 3.97569e-016 -0 -3.1477 -1.685 0.8462 -8.94531e-016 5.96354e-016 -0 -0.8055 -1.585 0.7955 -3.97569e-016 3.97569e-016 -0 8.367 -8.2066 0.5982 -4.66115 -1.03232 0.120763 2.1923 -43.463 -0.4932 0.00990601 1.55097 0.177175 0.7333 -45.8593 -2.6451 4.65196 -0.54114 -0.255042 -8.367 -8.2066 0.5982 4.66115 -1.03222 -0.120763 -2.1923 -43.463 -0.4931 -0.00990459 1.5509 -0.177176 -0.7333 -45.8593 -2.6451 -4.65196 -0.541171 0.255041 
0.0371419 39.4899 -4.64728 -0 -35.4387 -0 0 -1.186 -1.5018 0 6.52457 -0 0 9.964 0.2134 0 13.0491 -0 0 13.134 -3.2573 0 13.0491 -0 0 20.686 -1.6905 0 8.32178e-006 -0 0 7.238 -0.1237 0.00157621 0.137287 -0.0867177 1.7069 20.075 5.0056 0 8.32178e-006 -0 13.6458 -0.047 -4.849 -40.5305 0.0643936 5.75788 28.3255 -0.9759 2.2888 -0.0175079 0.895433 15.7816 22.1583 -0.53 10.8316 42.9993 -14.7709 6.6514 0.786 0.112 2.5817 2.98177e-016 3.97569e-016 -3.18055e-015 0.3601 -0.878 4.2331 -8.94531e-016 1.98785e-016 -6.36111e-015 1.8127 -1.216 2.2227 -6.95746e-016 5.96354e-016 -0 0.9571 1.114 1.7695 2.98177e-016 3.97569e-016 -3.18055e-015 4.1246 0.487 4.1451 -1.09332e-015 -9.93923e-016 -0 3.4052 -1.454 2.7682 -9.93923e-017 -3.97569e-016 3.18055e-015 1.4531 -1.795 1.2713 -6.95746e-016 0 -3.18055e-015 5.6954 0.21 2.1184 -1.09332e-015 -9.93923e-016 -0 3.9766 -1.54 2.3863 -9.93923e-017 -3.97569e-016 3.18055e-015 1.4042 -1.926 1.125 -6.95746e-016 0 -3.18055e-015 2.0956 0.66 -0.3894 2.98177e-016 3.97569e-016 -3.18055e-015 5.0395 -0.09 2.4971 -1.09332e-015 -9.93923e-016 -0 3.7921 -1.552 1.4806 -9.93923e-017 -3.97569e-016 3.18055e-015 1.4655 -1.808 0.9609 -6.95746e-016 0 -3.18055e-015 4.9141 -1.269 0.3591 -1.09332e-015 -9.93923e-016 -0 3.1477 -1.685 0.8462 -9.93923e-017 -3.97569e-016 3.18055e-015 0.8055 -1.585 0.7955 -6.95746e-016 0 -3.18055e-015 -1.7069 20.075 5.0056 0 8.32178e-006 -0 -13.6458 -0.047 -4.849 40.7852 0.0190138 -5.08374 -28.3255 -0.9759 2.2888 -1.76676 1.34583 -16.16 -22.1583 -0.53 10.8316 -43.0307 -14.9067 -7.08825 -0.786 0.112 2.5817 -8.94531e-016 -1.98785e-016 -6.36111e-015 -0.3601 -0.878 4.2331 8.94531e-016 1.19271e-015 -6.36111e-015 -1.8127 -1.216 2.2227 9.93923e-017 1.78906e-015 -3.18055e-015 -0.9571 1.114 1.7695 -7.95139e-016 -7.95139e-016 -3.18055e-015 -4.1246 0.487 4.1451 -1.2921e-015 0 3.18055e-015 -3.4052 -1.454 2.7682 -9.93923e-017 1.59028e-015 -6.36111e-015 -1.4531 -1.795 1.2713 7.95139e-016 1.59028e-015 -0 -5.6954 0.21 2.1184 -1.2921e-015 0 3.18055e-015 -3.9766 -1.54 2.3863 -9.93923e-017 1.59028e-015 -6.36111e-015 -1.4042 -1.926 1.125 7.95139e-016 1.59028e-015 -0 -2.0956 0.66 -0.3894 -7.95139e-016 -7.95139e-016 -3.18055e-015 -5.0395 -0.09 2.4971 -1.2921e-015 0 3.18055e-015 -3.7921 -1.552 1.4806 -9.93923e-017 1.59028e-015 -6.36111e-015 -1.4655 -1.808 0.9609 7.95139e-016 1.59028e-015 -0 -4.9141 -1.269 0.3592 -1.2921e-015 0 3.18055e-015 -3.1477 -1.685 0.8462 -9.93923e-017 1.59028e-015 -6.36111e-015 -0.8055 -1.585 0.7955 7.95139e-016 1.59028e-015 -0 8.367 -8.2066 0.5982 0.92849 -33.2338 5.06581 2.1923 -43.463 -0.4932 0.18588 40.1678 2.15914 0.7333 -45.8593 -2.6451 4.48873 9.76203 -0.546267 -8.367 -8.2066 0.5982 -1.46615 -33.0729 -4.3329 -2.1923 -43.463 -0.4931 -0.195752 40.1772 -2.29349 -0.7333 -45.8593 -2.6451 -5.12212 13.1176 0.857488 
0.049872 -3.03364 -7.92705 -0 -63.0022 -0 0 -1.186 -1.5018 0 11.5992 -0 0 9.964 0.2134 0 23.1985 -0 0 13.134 -3.2573 0 23.1984 -0 0 20.686 -1.6905 0 7.96235e-005 -0 0 7.238 -0.1237 0.000415008 0.274519 -0.173106 1.7069 20.075 5.0056 0 4.98956e-006 -0 13.6458 -0.047 -4.849 -73.3435 0.0835089 5.75766 28.3255 -0.9759 2.2888 -0.0174991 0.895432 15.7816 22.1583 -0.53 10.8316 79.3086 -20.3941 18.5921 0.786 0.112 2.5817 1.78906e-015 0 -3.18055e-015 0.3601 -0.878 4.2331 1.59028e-015 1.59028e-015 -0 1.8127 -1.216 2.2227 7.95139e-016 0 -0 0.9571 1.114 1.7695 5.96354e-016 0 -6.36111e-015 4.1246 0.487 4.1451 3.97569e-016 -1.59028e-015 -0 3.4052 -1.454 2.7682 1.19271e-015 0 3.18055e-015 1.4531 -1.795 1.2713 1.19271e-015 1.59028e-015 3.18055e-015 5.6954 0.21 2.1184 3.97569e-016 -1.59028e-015 -0 3.9766 -1.54 2.3863 1.19271e-015 0 3.18055e-015 1.4042 -1.926 1.125 1.19271e-015 1.59028e-015 3.18055e-015 2.0956 0.66 -0.3894 5.96354e-016 0 -6.36111e-015 5.0395 -0.09 2.4971 3.97569e-016 -1.59028e-015 -0 3.7921 -1.552 1.4806 1.19271e-015 0 3.18055e-015 1.4655 -1.808 0.9609 1.19271e-015 1.59028e-015 3.18055e-015 4.9141 -1.269 0.3591 3.97569e-016 -1.59028e-015 -0 3.1477 -1.685 0.8462 1.19271e-015 0 3.18055e-015 0.8055 -1.585 0.7955 1.19271e-015 1.59028e-015 3.18055e-015 -1.7069 20.075 5.0056 0 4.98956e-006 -0 -13.6458 -0.047 -4.849 73.55 0.063605 -5.0245 -28.3255 -0.9759 2.2888 -1.81349 1.47353 -15.4946 -22.1583 -0.53 10.8316 -79.3151 -20.3422 -19.2986 -0.786 0.112 2.5817 1.19271e-015 -7.95139e-016 -6.36111e-015 -0.3601 -0.878 4.2331 8.35624e-007 1.60351e-007 -4.66985e-008 -1.8127 -1.216 2.2227 1.98785e-015 0 -3.18055e-015 -0.9571 1.114 1.7695 1.19271e-015 -1.59028e-015 -6.36111e-015 -4.1246 0.487 4.1451 -1.19271e-015 0 3.18055e-015 -3.4052 -1.454 2.7682 8.35624e-007 1.60351e-007 -4.66985e-008 -1.4531 -1.795 1.2713 -2.64834e-031 -1.59028e-015 -9.54166e-015 -5.6954 0.21 2.1184 -1.19271e-015 0 3.18055e-015 -3.9766 -1.54 2.3863 8.35624e-007 1.60351e-007 -4.66985e-008 -1.4042 -1.926 1.125 -2.64834e-031 -1.59028e-015 -9.54166e-015 -2.0956 0.66 -0.3894 1.19271e-015 -1.59028e-015 -6.36111e-015 -5.0395 -0.09 2.4971 -1.19271e-015 0 3.18055e-015 -3.7921 -1.552 1.4806 8.35624e-007 1.60351e-007 -4.66985e-008 -1.4655 -1.808 0.9609 -2.64834e-031 -1.59028e-015 -9.54166e-015 -4.9141 -1.269 0.3592 -1.19271e-015 0 3.18055e-015 -3.1477 -1.685 0.8462 8.35624e-007 1.60351e-007 -4.66985e-008 -0.8055 -1.585 0.7955 -2.64834e-031 -1.59028e-015 -9.54166e-015 8.367 -8.2066 0.5982 11.4633 -58.2881 13.5489 2.1923 -43.463 -0.4932 0.502266 71.1675 2.22082 0.7333 -45.8593 -2.6451 4.05271 17.3421 1.06516 -8.367 -8.2066 0.5982 -11.3173 -58.0788 -11.4407 -2.1923 -43.463 -0.4931 -0.508969 71.0508 -2.35254 -0.7333 -45.8593 -2.6451 -5.08551 23.4125 -0.609894 
0.0502683 -9.20097 -8.16993 -0 -66.9398 -0 0 -1.186 -1.5018 0 12.3242 -0 0 9.964 0.2134 0 24.6484 -0 0 13.134 -3.2573 0 24.6484 -0 0 20.686 -1.6905 0 6.45979e-005 -0 0 7.238 -0.1237 -0.00974232 0.411572 -0.258507 1.7069 20.075 5.0056 -0 -2.13214e-006 -0 13.6458 -0.047 -4.849 -78.0225 0.2173 5.75609 28.3255 -0.9759 2.2888 -0.0175228 0.895432 15.7816 22.1583 -0.53 10.8316 84.6423 -20.5663 20.5443 0.786 0.112 2.5817 1.98785e-016 7.95139e-016 -9.54166e-015 0.3601 -0.878 4.2331 -1.39149e-015 7.95139e-016 -6.36111e-015 1.8127 -1.216 2.2227 -1.59028e-015 0 -9.54166e-015 0.9571 1.114 1.7695 7.95139e-016 0 -3.18055e-015 4.1246 0.487 4.1451 -1.39149e-015 7.95139e-016 -0 3.4052 -1.454 2.7682 -3.97569e-016 7.95139e-016 -9.54166e-015 1.4531 -1.795 1.2713 -1.39149e-015 1.59028e-015 -1.27222e-014 5.6954 0.21 2.1184 -1.39149e-015 7.95139e-016 -0 3.9766 -1.54 2.3863 -3.97569e-016 7.95139e-016 -9.54166e-015 1.4042 -1.926 1.125 -1.39149e-015 1.59028e-015 -1.27222e-014 2.0956 0.66 -0.3894 7.95139e-016 0 -3.18055e-015 5.0395 -0.09 2.4971 -1.39149e-015 7.95139e-016 -0 3.7921 -1.552 1.4806 -3.97569e-016 7.95139e-016 -9.54166e-015 1.4655 -1.808 0.9609 -1.39149e-015 1.59028e-015 -1.27222e-014 4.9141 -1.269 0.3591 -1.39149e-015 7.95139e-016 -0 3.1477 -1.685 0.8462 -3.97569e-016 7.95139e-016 -9.54166e-015 0.8055 -1.585 0.7955 -1.39149e-015 1.59028e-015 -1.27222e-014 -1.7069 20.075 5.0056 -0 -2.13214e-006 -0 -13.6458 -0.047 -4.849 77.9019 0.376076 -4.61095 -28.3255 -0.9759 2.2888 -1.93656 1.56672 -14.8718 -22.1583 -0.53 10.8316 -84.1859 -20.2846 -20.9843 -0.786 0.112 2.5817 -1.56235e-007 8.3582e-007 5.35052e-008 -0.3601 -0.878 4.2331 -3.97569e-016 0 -0 -1.8127 -1.216 2.2227 -1.56235e-007 8.3582e-007 5.35052e-008 -0.9571 1.114 1.7695 -1.19271e-015 -2.38542e-015 6.36111e-015 -4.1246 0.487 4.1451 -1.56235e-007 8.3582e-007 5.35052e-008 -3.4052 -1.454 2.7682 -1.59028e-015 1.59028e-015 3.18055e-015 -1.4531 -1.795 1.2713 -1.56235e-007 8.3582e-007 5.35052e-008 -5.6954 0.21 2.1184 -1.56235e-007 8.3582e-007 5.35052e-008 -3.9766 -1.54 2.3863 -1.59028e-015 1.59028e-015 3.18055e-015 -1.4042 -1.926 1.125 -1.56235e-007 8.3582e-007 5.35052e-008 -2.0956 0.66 -0.3894 -1.19271e-015 -2.38542e-015 6.36111e-015 -5.0395 -0.09 2.4971 -1.56235e-007 8.3582e-007 5.35052e-008 -3.7921 -1.552 1.4806 -1.59028e-015 1.59028e-015 3.18055e-015 -1.4655 -1.808 0.9609 -1.56235e-007 8.3582e-007 5.35052e-008 -4.9141 -1.269 0.3592 -1.56235e-007 8.3582e-007 5.35052e-008 -3.1477 -1.685 0.8462 -1.59028e-015 1.59028e-015 3.18055e-015 -0.8055 -1.585 0.7955 -1.56235e-007 8.3582e-007 5.35052e-008 8.367 -8.2066 0.5982 14.0904 -61.8031 15.8263 2.1923 -43.463 -0.4932 0.743444 75.6225 2.2362 0.7333 -45.8593 -2.6451 3.98481 18.4123 1.19489 -8.367 -8.2066 0.5982 -13.636 -61.6251 -13.329 -2.1923 -43.463 -0.4931 -0.751954 75.5004 -2.37224 -0.7333 -45.8593 -2.6451 -5.08304 24.8645 -0.709832 
